<svg id="visual" viewBox="0 0 1920 970" width="1920" height="970" xmlns="http://www.w3.org/2000/svg" xmlns:xlink="http://www.w3.org/1999/xlink" version="1.1"><rect x="0" y="0" width="1920" height="970" fill="#931C1C"></rect><path d="M0 441L213 422L427 453L640 399L853 445L1067 445L1280 402L1493 431L1707 436L1920 516L1920 971L1707 971L1493 971L1280 971L1067 971L853 971L640 971L427 971L213 971L0 971Z" fill="#f5730a"></path><path d="M0 529L213 465L427 534L640 467L853 571L1067 549L1280 535L1493 552L1707 571L1920 558L1920 971L1707 971L1493 971L1280 971L1067 971L853 971L640 971L427 971L213 971L0 971Z" fill="#e3630a"></path><path d="M0 624L213 551L427 570L640 609L853 626L1067 601L1280 631L1493 631L1707 567L1920 548L1920 971L1707 971L1493 971L1280 971L1067 971L853 971L640 971L427 971L213 971L0 971Z" fill="#d15308"></path><path d="M0 709L213 668L427 679L640 629L853 620L1067 689L1280 629L1493 684L1707 656L1920 656L1920 971L1707 971L1493 971L1280 971L1067 971L853 971L640 971L427 971L213 971L0 971Z" fill="#be4407"></path><path d="M0 725L213 722L427 737L640 769L853 727L1067 742L1280 757L1493 758L1707 777L1920 710L1920 971L1707 971L1493 971L1280 971L1067 971L853 971L640 971L427 971L213 971L0 971Z" fill="#ac3505"></path><path d="M0 813L213 775L427 824L640 787L853 775L1067 809L1280 829L1493 794L1707 841L1920 835L1920 971L1707 971L1493 971L1280 971L1067 971L853 971L640 971L427 971L213 971L0 971Z" fill="#992503"></path><path d="M0 909L213 858L427 867L640 906L853 911L1067 866L1280 866L1493 903L1707 880L1920 869L1920 971L1707 971L1493 971L1280 971L1067 971L853 971L640 971L427 971L213 971L0 971Z" fill="#871400"></path></svg>